<svg xmlns="http://www.w3.org/2000/svg" viewBox="0 0 40.39 44.1"><defs><style>.cls-1,.cls-2{fill:none;stroke-linecap:round;stroke-linejoin:round;stroke-width:2.5px;}.cls-1{stroke:#333;}.cls-2{stroke:#53b8a9;}.cls-3{fill:#53b8a9;}</style></defs><title>4</title><g id="图层_2" data-name="图层 2"><g id="图层_1-2" data-name="图层 1"><path class="cls-1" d="M12.13,27.53,1.68,39.72A1.77,1.77,0,0,0,3,42.65H19.55"/><path class="cls-2" d="M35.22,29.77H28a.33.33,0,0,0-.28.16l-3.59,6.22a.36.36,0,0,0,0,.32l3.59,6.22a.33.33,0,0,0,.28.16h7.18a.31.31,0,0,0,.28-.16l3.59-6.22a.31.31,0,0,0,0-.32L35.5,29.93A.31.31,0,0,0,35.22,29.77Z"/><path class="cls-1" d="M17.48,1.25A11.18,11.18,0,1,0,28.66,12.42,11.17,11.17,0,0,0,17.48,1.25Z"/><circle class="cls-3" cx="31.63" cy="36.31" r="2.19"/></g></g></svg>