<svg xmlns="http://www.w3.org/2000/svg" viewBox="0 0 39.5 19.5"><defs><style>.cls-1{fill:#fff;}.cls-2{fill:#4ad3bc;}</style></defs><title>应用</title><g id="图层_2" data-name="图层 2"><g id="图层_1-2" data-name="图层 1"><path class="cls-1" d="M14.75,19.5h-5A9.75,9.75,0,0,1,9.75,0h5a1.25,1.25,0,0,1,0,2.5h-5a7.25,7.25,0,0,0,0,14.5h5a1.25,1.25,0,0,1,0,2.5Z"/><path class="cls-1" d="M29.75,19.5h-5a1.25,1.25,0,0,1,0-2.5h5a7.25,7.25,0,0,0,0-14.5h-5a1.25,1.25,0,0,1,0-2.5h5a9.75,9.75,0,0,1,0,19.5Z"/><path class="cls-2" d="M25.5,11H14a1.25,1.25,0,0,1,0-2.5H25.5a1.25,1.25,0,0,1,0,2.5Z"/></g></g></svg>