<svg xmlns="http://www.w3.org/2000/svg" viewBox="0 0 32.5 32.5"><defs><style>.cls-1,.cls-2{fill:none;stroke-linecap:round;stroke-linejoin:round;stroke-width:2.5px;}.cls-1{stroke:#333;}.cls-2{stroke:#53b8a9;}</style></defs><title>keystore</title><g id="图层_2" data-name="图层 2"><g id="图层_1-2" data-name="图层 1"><path class="cls-1" d="M25.58,1.25H6.92a2.1,2.1,0,0,0-2,1.62L1.31,18a2,2,0,0,0-.06.48V29.15a2.1,2.1,0,0,0,2.1,2.1h25.8a2.1,2.1,0,0,0,2.1-2.1V18.49a2,2,0,0,0-.06-.48L27.63,2.87A2.1,2.1,0,0,0,25.58,1.25Z"/><path class="cls-1" d="M1.76,19.25h9.36a5,5,0,0,0,10,0h9.62"/><line class="cls-2" x1="9" y1="13.45" x2="23.5" y2="13.45"/><line class="cls-2" x1="9.97" y1="7.45" x2="22.53" y2="7.45"/></g></g></svg>