<svg xmlns="http://www.w3.org/2000/svg" viewBox="0 0 44.74 43.48"><defs><style>.cls-1{fill:#333;}.cls-2{fill:none;stroke:#333;stroke-linecap:round;stroke-linejoin:round;stroke-width:2.5px;}.cls-3{fill:#53b8a9;}</style></defs><title>3</title><g id="图层_2" data-name="图层 2"><g id="图层_1-2" data-name="图层 1"><path class="cls-1" d="M18.23,2.5h0m-.46.09,0,19s0,.08,0,.12V22a4.15,4.15,0,0,0,.91,2.71l.09.1.11.13L19,25,31.78,38.29a19.42,19.42,0,1,1-14-35.7M18.17,0a3,3,0,0,0-.42,0,21.92,21.92,0,0,0,4.17,43.44h0a21.82,21.82,0,0,0,11.56-3.31,2.09,2.09,0,0,0,.43-3.24L20.75,23.27l-.11-.13a1.62,1.62,0,0,1-.35-1.23l0-.17v-.16l0-19.5A2.09,2.09,0,0,0,18.17,0Z"/><path class="cls-2" d="M41.4,23.21a2.07,2.07,0,0,1,2.06,2.41,21.77,21.77,0,0,1-3.91,9,2.07,2.07,0,0,1-3.14.17l-9.64-10a.92.92,0,0,1,.67-1.56Z"/><path class="cls-3" d="M26.06,2.59A19.54,19.54,0,0,1,40.89,17.42H26.05V2.59M25.66,0a2.09,2.09,0,0,0-2.1,2.08V17.62a2.29,2.29,0,0,0,2.29,2.3H41.39a2.1,2.1,0,0,0,2-2.51A21.93,21.93,0,0,0,26.06,0a1.81,1.81,0,0,0-.4,0Z"/></g></g></svg>