<svg xmlns="http://www.w3.org/2000/svg" viewBox="0 0 39 39"><defs><style>.cls-1{fill:#fff;}.cls-2{fill:#4ad3bc;}</style></defs><title>设置</title><g id="图层_2" data-name="图层 2"><g id="图层_1-2" data-name="图层 1"><path class="cls-1" d="M20.86,2.5l.78,4.27a1.38,1.38,0,0,0,.87,1.07L25.72,9.2a1.32,1.32,0,0,0,.51.1A1.41,1.41,0,0,0,27.08,9l3.49-2.43,1.85,1.85L30,11.92a1.38,1.38,0,0,0-.19,1.36l1.36,3.31a1.4,1.4,0,0,0,1.07.87l4.27.78v2.52l-4.27.78a1.4,1.4,0,0,0-1.07.87L29.8,25.62A1.35,1.35,0,0,0,30,27l2.43,3.5-1.85,1.84-3.49-2.43a1.6,1.6,0,0,0-.89-.29,1,1,0,0,0-.47.1l-3.31,1.46a1.4,1.4,0,0,0-.87,1.07l-.78,4.27H18.14l-.78-4.27a1.38,1.38,0,0,0-.87-1.07L13.28,29.8a1.32,1.32,0,0,0-.51-.1,1.41,1.41,0,0,0-.85.29L8.43,32.42,6.58,30.57,9,27.08a1.38,1.38,0,0,0,.19-1.36L7.84,22.41a1.4,1.4,0,0,0-1.07-.87L2.5,20.76V18.14l4.27-.78a1.38,1.38,0,0,0,1.07-.87L9.2,13.28A1.36,1.36,0,0,0,9,11.92L6.58,8.43,8.43,6.58,11.92,9a1.53,1.53,0,0,0,.89.29,1,1,0,0,0,.47-.1l3.31-1.36a1.4,1.4,0,0,0,.87-1.07l.78-4.27h2.62m0-2.5H18.24a2.49,2.49,0,0,0-2.46,2.05l-.67,3.7-2.2.9L9.85,4.53a2.49,2.49,0,0,0-3.19.28L4.81,6.66a2.5,2.5,0,0,0-.28,3.19l2.12,3.06L5.76,15l-3.71.67a2.5,2.5,0,0,0-2,2.46v2.62a2.49,2.49,0,0,0,2.05,2.46l3.7.67.9,2.2L4.53,29.15a2.5,2.5,0,0,0,.28,3.19l1.85,1.85a2.49,2.49,0,0,0,3.19.28l3.06-2.12,2.1.89L15.68,37a2.5,2.5,0,0,0,2.46,2h2.62a2.49,2.49,0,0,0,2.46-2l.68-3.71,2.2-1,3,2.12a2.51,2.51,0,0,0,3.19-.29l1.85-1.85a2.5,2.5,0,0,0,.28-3.19L32.35,26l.89-2.1L37,23.22a2.49,2.49,0,0,0,2-2.46V18.24a2.49,2.49,0,0,0-2-2.46l-3.7-.67-.9-2.2,2.12-3.06a2.5,2.5,0,0,0-.28-3.19L32.34,4.81a2.49,2.49,0,0,0-3.19-.28L26.09,6.65,24,5.76l-.67-3.71a2.5,2.5,0,0,0-2.46-2Z"/><path class="cls-2" d="M19.5,15.25a4.25,4.25,0,1,1-4.25,4.25,4.25,4.25,0,0,1,4.25-4.25m0-2.5a6.75,6.75,0,1,0,6.75,6.75,6.76,6.76,0,0,0-6.75-6.75Z"/></g></g></svg>