<svg xmlns="http://www.w3.org/2000/svg" viewBox="0 0 52.46 48.42"><defs><style>.cls-1,.cls-2,.cls-3{fill:none;stroke-width:2.5px;}.cls-1,.cls-2{stroke:#333;}.cls-1,.cls-3{stroke-linecap:round;stroke-linejoin:round;}.cls-2{stroke-miterlimit:10;}.cls-3{stroke:#53b8a9;}</style></defs><title>资源 1</title><g id="图层_2" data-name="图层 2"><g id="图层_1-2" data-name="图层 1"><path class="cls-1" d="M31.76,2.89H37.5A3.12,3.12,0,0,1,40.62,6v4.8"/><path class="cls-2" d="M5.08,10.4,24.5,1.5A2.69,2.69,0,0,1,28,2.75l3.74,7.63"/><path class="cls-1" d="M30.45,43H4.35a3.1,3.1,0,0,1-3.1-3.1V7m12.2-4.14H5.21a4,4,0,0,0-4,4h0a4,4,0,0,0,4,4H41.42a3.12,3.12,0,0,1,3.12,3.12V30.05"/><circle class="cls-2" cx="35.35" cy="26.96" r="3.79"/><polyline class="cls-3" points="36.88 38.2 51.21 38.2 48.59 34.08"/><polyline class="cls-3" points="51.21 43.05 36.88 43.05 39.49 47.17"/></g></g></svg>